<?xml version="1.0" encoding="UTF-8"?>
<!DOCTYPE svg PUBLIC "-//W3C//DTD SVG 1.1//EN" "http://www.w3.org/Graphics/SVG/1.1/DTD/svg11.dtd">
<svg xmlns="http://www.w3.org/2000/svg" version="1.1" width="64px" height="64px" style="shape-rendering:geometricPrecision; text-rendering:geometricPrecision; image-rendering:optimizeQuality; fill-rule:evenodd; clip-rule:evenodd" xmlns:xlink="http://www.w3.org/1999/xlink">
<g><path style="opacity:1" fill="#125c8b" d="M 54.5,7.5 C 55.4916,7.32842 56.1583,7.66175 56.5,8.5C 56.5,8.83333 56.5,9.16667 56.5,9.5C 51.7986,9.9569 47.132,10.6236 42.5,11.5C 46.2816,9.79886 50.2816,8.46552 54.5,7.5 Z"/></g>
<g><path style="opacity:1" fill="#1da5f2" d="M 54.5,7.5 C 50.2816,8.46552 46.2816,9.79886 42.5,11.5C 32.444,13.3584 22.444,15.5251 12.5,18C 11.3147,19.353 9.98138,20.5197 8.5,21.5C 6.88882,20.6798 6.22216,19.3464 6.5,17.5C 6.9528,16.5416 7.61947,15.7083 8.5,15C 13.6292,13.4945 18.6292,11.9945 23.5,10.5C 25.1667,10.5 26.8333,10.5 28.5,10.5C 32.9816,10.9661 36.9816,9.9661 40.5,7.5C 43.5907,6.67751 46.7574,6.01084 50,5.5C 51.876,5.52472 53.376,6.19138 54.5,7.5 Z"/></g>
<g><path style="opacity:1" fill="#cacfcb" d="M 56.5,9.5 C 55.6104,16.5058 54.6104,23.5058 53.5,30.5C 53.5195,31.7261 53.8529,32.7261 54.5,33.5C 52.5035,37.5068 49.1702,39.5068 44.5,39.5C 44.5,38.5 44.5,37.5 44.5,36.5C 47.2639,36.0012 48.9305,34.3345 49.5,31.5C 48.1979,29.9724 46.5313,28.9724 44.5,28.5C 45.6412,27.661 46.9745,26.9943 48.5,26.5C 49.8333,25.8333 49.8333,25.1667 48.5,24.5C 40.4024,27.919 32.0691,30.5856 23.5,32.5C 24.8333,31.5 24.8333,30.5 23.5,29.5C 31.5446,26.5409 39.7112,23.8742 48,21.5C 49.2575,21.1501 49.5908,20.4835 49,19.5C 47.3005,20.4061 45.4672,20.7394 43.5,20.5C 37.6647,22.5111 31.6647,24.3444 25.5,26C 23.5743,26.4224 22.5743,27.5891 22.5,29.5C 20.026,28.7237 19.3593,27.2237 20.5,25C 23.2263,24.8184 25.8929,24.3184 28.5,23.5C 23.9335,21.5476 19.2668,21.2143 14.5,22.5C 13.383,23.9494 12.7163,25.6161 12.5,27.5C 13,31.5 13.5,35.5 14,39.5C 14.3333,38.8333 14.6667,38.1667 15,37.5C 15.5,38.6667 16.3333,39.5 17.5,40C 16.7471,41.487 15.9138,41.6537 15,40.5C 14.3333,42.8333 14.3333,45.1667 15,47.5C 16.0113,48.3366 17.1779,48.67 18.5,48.5C 18.5,49.1667 18.5,49.8333 18.5,50.5C 16.6656,51.494 14.9989,51.494 13.5,50.5C 14.2389,50.631 14.9056,50.4643 15.5,50C 13.5459,44.0753 12.0459,37.9086 11,31.5C 10.3333,28.1667 10.3333,24.8333 11,21.5C 21.4152,17.7737 31.9152,14.4403 42.5,11.5C 47.132,10.6236 51.7986,9.9569 56.5,9.5 Z"/></g>
<g><path style="opacity:1" fill="#82959f" d="M 56.5,8.5 C 57.1582,9.79328 57.4915,11.2933 57.5,13C 56.5525,19.8507 55.5525,26.684 54.5,33.5C 53.8529,32.7261 53.5195,31.7261 53.5,30.5C 54.6104,23.5058 55.6104,16.5058 56.5,9.5C 56.5,9.16667 56.5,8.83333 56.5,8.5 Z"/></g>
<g><path style="opacity:1" fill="#d9cebf" d="M 43.5,20.5 C 39.7002,20.5889 36.0336,19.9222 32.5,18.5C 29.6948,20.4669 26.6948,20.8002 23.5,19.5C 28.1886,17.2822 33.1886,16.1156 38.5,16C 37.2941,14.9823 37.6274,14.4823 39.5,14.5C 42.1316,15.4399 44.7983,15.6066 47.5,15C 46.6919,14.6924 46.0253,14.1924 45.5,13.5C 47.0453,12.5481 48.712,12.2148 50.5,12.5C 50.8333,14.5 51.1667,16.5 51.5,18.5C 49.1432,18.3367 46.8098,18.5034 44.5,19C 43.944,19.3826 43.6107,19.8826 43.5,20.5 Z"/></g>
<g><path style="opacity:1" fill="#f2f5f5" d="M -0.5,-0.5 C 20.8333,-0.5 42.1667,-0.5 63.5,-0.5C 63.5,9.16667 63.5,18.8333 63.5,28.5C 61.4163,30.0767 59.4163,31.91 57.5,34C 56.4232,34.4696 55.4232,34.3029 54.5,33.5C 55.5525,26.684 56.5525,19.8507 57.5,13C 57.4915,11.2933 57.1582,9.79328 56.5,8.5C 56.1583,7.66175 55.4916,7.32842 54.5,7.5C 53.376,6.19138 51.876,5.52472 50,5.5C 46.7574,6.01084 43.5907,6.67751 40.5,7.5C 36.1997,7.75466 32.1997,8.75466 28.5,10.5C 26.8333,10.5 25.1667,10.5 23.5,10.5C 21.8008,10.6602 20.1341,10.4935 18.5,10C 21.21,8.33236 21.0433,7.49902 18,7.5C 13.1595,8.69561 8.32621,8.69561 3.5,7.5C 6.65509,3.91355 10.3218,3.58022 14.5,6.5C 17.5778,4.87012 20.9111,4.03679 24.5,4C 20.8964,1.34067 17.2297,1.17401 13.5,3.5C 10.7488,2.6889 8.74877,1.6889 7.5,0.5C 4.82589,1.51451 2.15922,2.51451 -0.5,3.5C -0.5,2.16667 -0.5,0.833333 -0.5,-0.5 Z"/></g>
<g><path style="opacity:1" fill="#54b6e5" d="M 40.5,7.5 C 36.9816,9.9661 32.9816,10.9661 28.5,10.5C 32.1997,8.75466 36.1997,7.75466 40.5,7.5 Z"/></g>
<g><path style="opacity:1" fill="#f2f4f6" d="M 23.5,10.5 C 18.6292,11.9945 13.6292,13.4945 8.5,15C 7.61947,15.7083 6.9528,16.5416 6.5,17.5C 5.85287,18.2739 5.51954,19.2739 5.5,20.5C 6.75912,25.795 7.75912,31.1283 8.5,36.5C 7.00136,35.3218 6.00136,33.6551 5.5,31.5C 5.3814,35.0484 5.21473,38.715 5,42.5C 4.33333,43.1667 3.66667,43.8333 3,44.5C 2.66667,40.1667 2.33333,35.8333 2,31.5C 1.14825,32.5707 0.314913,33.5707 -0.5,34.5C -0.5,24.1667 -0.5,13.8333 -0.5,3.5C 2.15922,2.51451 4.82589,1.51451 7.5,0.5C 8.74877,1.6889 10.7488,2.6889 13.5,3.5C 17.2297,1.17401 20.8964,1.34067 24.5,4C 20.9111,4.03679 17.5778,4.87012 14.5,6.5C 10.3218,3.58022 6.65509,3.91355 3.5,7.5C 8.32621,8.69561 13.1595,8.69561 18,7.5C 21.0433,7.49902 21.21,8.33236 18.5,10C 20.1341,10.4935 21.8008,10.6602 23.5,10.5 Z"/></g>
<g><path style="opacity:1" fill="#266591" d="M 23.5,29.5 C 23.1667,29.5 22.8333,29.5 22.5,29.5C 22.5743,27.5891 23.5743,26.4224 25.5,26C 31.6647,24.3444 37.6647,22.5111 43.5,20.5C 45.4672,20.7394 47.3005,20.4061 49,19.5C 49.5908,20.4835 49.2575,21.1501 48,21.5C 39.7112,23.8742 31.5446,26.5409 23.5,29.5 Z"/></g>
<g><path style="opacity:1" fill="#226496" d="M 44.5,28.5 C 38.9075,29.6459 33.5742,31.3126 28.5,33.5C 27.3052,33.6775 26.1385,34.0109 25,34.5C 23.9701,34.1639 23.4701,33.4972 23.5,32.5C 32.0691,30.5856 40.4024,27.919 48.5,24.5C 49.8333,25.1667 49.8333,25.8333 48.5,26.5C 46.9745,26.9943 45.6412,27.661 44.5,28.5 Z"/></g>
<g><path style="opacity:1" fill="#f4f4f4" d="M 63.5,28.5 C 63.5,40.1667 63.5,51.8333 63.5,63.5C 48.1667,63.5 32.8333,63.5 17.5,63.5C 16.0199,61.5881 14.0199,60.4215 11.5,60C 10.2528,58.5064 10.2528,57.0064 11.5,55.5C 13.9738,54.6805 16.3071,53.6805 18.5,52.5C 19.2362,54.2294 20.5695,55.2294 22.5,55.5C 24.1667,54.5 25.5,53.1667 26.5,51.5C 29.2971,49.205 31.9638,46.705 34.5,44C 38.0609,42.7679 41.3943,41.2679 44.5,39.5C 49.1702,39.5068 52.5035,37.5068 54.5,33.5C 55.4232,34.3029 56.4232,34.4696 57.5,34C 59.4163,31.91 61.4163,30.0767 63.5,28.5 Z"/></g>
<g><path style="opacity:1" fill="#1d5c86" d="M 42.5,11.5 C 31.9152,14.4403 21.4152,17.7737 11,21.5C 10.3333,24.8333 10.3333,28.1667 11,31.5C 12.0459,37.9086 13.5459,44.0753 15.5,50C 14.9056,50.4643 14.2389,50.631 13.5,50.5C 10.3813,46.4108 8.71465,41.7441 8.5,36.5C 7.75912,31.1283 6.75912,25.795 5.5,20.5C 5.51954,19.2739 5.85287,18.2739 6.5,17.5C 6.22216,19.3464 6.88882,20.6798 8.5,21.5C 9.98138,20.5197 11.3147,19.353 12.5,18C 22.444,15.5251 32.444,13.3584 42.5,11.5 Z"/></g>
<g><path style="opacity:1" fill="#b1c7ce" d="M 44.5,28.5 C 46.5313,28.9724 48.1979,29.9724 49.5,31.5C 49.1667,31.5 48.8333,31.5 48.5,31.5C 48.2648,30.9033 47.7648,30.5699 47,30.5C 41.7701,32.2365 36.6034,33.9031 31.5,35.5C 31.1788,33.9519 30.1788,33.2852 28.5,33.5C 33.5742,31.3126 38.9075,29.6459 44.5,28.5 Z"/></g>
<g><path style="opacity:1" fill="#306c94" d="M 48.5,31.5 C 40.8403,34.1645 33.1736,36.8311 25.5,39.5C 23.6274,39.5177 23.2941,39.0177 24.5,38C 26.441,36.0972 28.7743,35.2639 31.5,35.5C 36.6034,33.9031 41.7701,32.2365 47,30.5C 47.7648,30.5699 48.2648,30.9033 48.5,31.5 Z"/></g>
<g><path style="opacity:1" fill="#d3cfc4" d="M 22.5,29.5 C 22.8333,29.5 23.1667,29.5 23.5,29.5C 24.8333,30.5 24.8333,31.5 23.5,32.5C 23.4701,33.4972 23.9701,34.1639 25,34.5C 26.1385,34.0109 27.3052,33.6775 28.5,33.5C 30.1788,33.2852 31.1788,33.9519 31.5,35.5C 28.7743,35.2639 26.441,36.0972 24.5,38C 23.2941,39.0177 23.6274,39.5177 25.5,39.5C 33.1736,36.8311 40.8403,34.1645 48.5,31.5C 48.8333,31.5 49.1667,31.5 49.5,31.5C 48.9305,34.3345 47.2639,36.0012 44.5,36.5C 44.5,37.5 44.5,38.5 44.5,39.5C 36.1029,40.0567 30.1029,44.0567 26.5,51.5C 25.5,53.1667 24.1667,54.5 22.5,55.5C 22.3801,53.2655 22.7135,51.0989 23.5,49C 23.1667,48.5 22.8333,48 22.5,47.5C 21.2638,48.2458 19.9305,48.5792 18.5,48.5C 17.1779,48.67 16.0113,48.3366 15,47.5C 14.3333,45.1667 14.3333,42.8333 15,40.5C 15.9138,41.6537 16.7471,41.487 17.5,40C 16.3333,39.5 15.5,38.6667 15,37.5C 14.6667,38.1667 14.3333,38.8333 14,39.5C 13.5,35.5 13,31.5 12.5,27.5C 12.7163,25.6161 13.383,23.9494 14.5,22.5C 19.2668,21.2143 23.9335,21.5476 28.5,23.5C 25.8929,24.3184 23.2263,24.8184 20.5,25C 19.3593,27.2237 20.026,28.7237 22.5,29.5 Z"/></g>
<g><path style="opacity:1" fill="#919fa8" d="M 44.5,39.5 C 41.3943,41.2679 38.0609,42.7679 34.5,44C 31.9638,46.705 29.2971,49.205 26.5,51.5C 30.1029,44.0567 36.1029,40.0567 44.5,39.5 Z"/></g>
<g><path style="opacity:1" fill="#23709f" d="M 22.5,55.5 C 20.5695,55.2294 19.2362,54.2294 18.5,52.5C 18.5,51.8333 18.5,51.1667 18.5,50.5C 18.5,49.8333 18.5,49.1667 18.5,48.5C 19.9305,48.5792 21.2638,48.2458 22.5,47.5C 22.8333,48 23.1667,48.5 23.5,49C 22.7135,51.0989 22.3801,53.2655 22.5,55.5 Z"/></g>
<g><path style="opacity:1" fill="#f3f4f5" d="M 8.5,36.5 C 8.71465,41.7441 10.3813,46.4108 13.5,50.5C 14.9989,51.494 16.6656,51.494 18.5,50.5C 18.5,51.1667 18.5,51.8333 18.5,52.5C 16.3071,53.6805 13.9738,54.6805 11.5,55.5C 10.2528,57.0064 10.2528,58.5064 11.5,60C 14.0199,60.4215 16.0199,61.5881 17.5,63.5C 11.5,63.5 5.5,63.5 -0.5,63.5C -0.5,53.8333 -0.5,44.1667 -0.5,34.5C 0.314913,33.5707 1.14825,32.5707 2,31.5C 2.33333,35.8333 2.66667,40.1667 3,44.5C 3.66667,43.8333 4.33333,43.1667 5,42.5C 5.21473,38.715 5.3814,35.0484 5.5,31.5C 6.00136,33.6551 7.00136,35.3218 8.5,36.5 Z"/></g>
</svg>
